<svg width="104" height="74" viewBox="0 0 104 74" fill="none" xmlns="http://www.w3.org/2000/svg">
<ellipse cx="72.1662" cy="28.6975" rx="30.9643" ry="26.2373" transform="rotate(-172.275 72.1662 28.6975)" fill="white"/>
<ellipse cx="59.9155" cy="46.7395" rx="30.9643" ry="26.2373" transform="rotate(-172.275 59.9155 46.7395)" fill="white"/>
<ellipse cx="33.7167" cy="32.1023" rx="33.3929" ry="31.1186" transform="rotate(-172.275 33.7167 32.1023)" fill="white"/>
<g clip-path="url(#clip0_47_70)">
<path d="M53 22.0176C49.2026 22.0176 48.7264 22.0337 47.235 22.1017C45.7467 22.1696 44.7303 22.406 43.8409 22.7516C42.9214 23.1089 42.1417 23.5871 41.3643 24.3644C40.587 25.1417 40.1088 25.9216 39.7516 26.841C39.4059 27.7304 39.1696 28.7468 39.1016 30.2351C39.0336 31.7265 39.0175 32.2027 39.0175 36.0001C39.0175 39.7975 39.0336 40.2737 39.1016 41.7651C39.1696 43.2534 39.4059 44.2698 39.7516 45.1592C40.1089 46.0786 40.587 46.8584 41.3643 47.6358C42.1417 48.4131 42.9214 48.8913 43.8409 49.2486C44.7303 49.5942 45.7467 49.8306 47.235 49.8985C48.7264 49.9665 49.2026 49.9826 53 49.9826C56.7974 49.9826 57.2736 49.9665 58.765 49.8985C60.2533 49.8306 61.2697 49.5942 62.1591 49.2486C63.0786 48.8913 63.8583 48.4131 64.6357 47.6358C65.413 46.8584 65.8912 46.0786 66.2485 45.1592C66.5941 44.2698 66.8305 43.2534 66.8984 41.7651C66.9664 40.2737 66.9825 39.7975 66.9825 36.0001C66.9825 32.2027 66.9664 31.7265 66.8984 30.2351C66.8305 28.7468 66.5941 27.7304 66.2485 26.841C65.8912 25.9216 65.413 25.1417 64.6357 24.3644C63.8583 23.5871 63.0786 23.1089 62.1591 22.7516C61.2697 22.406 60.2533 22.1696 58.765 22.1017C57.2736 22.0337 56.7974 22.0176 53 22.0176ZM53 24.5369C56.7335 24.5369 57.1757 24.5512 58.6501 24.6185C60.0135 24.6806 60.7538 24.9084 61.2465 25.0999C61.8992 25.3536 62.365 25.6566 62.8542 26.1458C63.3436 26.6351 63.6465 27.101 63.9002 27.7536C64.0917 28.2463 64.3195 28.9867 64.3816 30.35C64.4489 31.8244 64.4632 32.2666 64.4632 36.0001C64.4632 39.7336 64.4489 40.1758 64.3816 41.6502C64.3195 43.0135 64.0917 43.7539 63.9002 44.2466C63.6465 44.8993 63.3436 45.3651 62.8542 45.8543C62.365 46.3436 61.8992 46.6466 61.2465 46.9003C60.7538 47.0918 60.0134 47.3196 58.6501 47.3817C57.176 47.449 56.7338 47.4633 53 47.4633C49.2662 47.4633 48.8241 47.449 47.3499 47.3817C45.9866 47.3196 45.2462 47.0918 44.7535 46.9003C44.1008 46.6466 43.635 46.3436 43.1458 45.8543C42.6565 45.3651 42.3535 44.8992 42.0998 44.2466C41.9083 43.7539 41.6806 43.0135 41.6184 41.6502C41.5511 40.1758 41.5368 39.7336 41.5368 36.0001C41.5368 32.2666 41.5511 31.8244 41.6184 30.35C41.6806 28.9867 41.9083 28.2463 42.0998 27.7536C42.3535 27.1009 42.6565 26.6351 43.1458 26.1459C43.635 25.6566 44.1009 25.3536 44.7535 25.0999C45.2462 24.9084 45.9866 24.6806 47.3499 24.6185C48.8243 24.5512 49.2666 24.5369 53 24.5369Z" fill="#2596FF"/>
<path d="M53 40.6608C50.4259 40.6608 48.3391 38.5741 48.3391 36C48.3391 33.4259 50.4259 31.3391 53 31.3391C55.5741 31.3391 57.6609 33.4259 57.6609 36C57.6609 38.5741 55.5741 40.6608 53 40.6608ZM53 28.8198C49.0345 28.8198 45.8198 32.0344 45.8198 36C45.8198 39.9655 49.0345 43.1802 53 43.1802C56.9655 43.1802 60.1802 39.9655 60.1802 36C60.1802 32.0344 56.9655 28.8198 53 28.8198ZM62.1418 28.5361C62.1418 29.4628 61.3906 30.214 60.4639 30.214C59.5373 30.214 58.786 29.4628 58.786 28.5361C58.786 27.6094 59.5373 26.8582 60.4639 26.8582C61.3906 26.8582 62.1418 27.6094 62.1418 28.5361Z" fill="#2596FF"/>
</g>
<defs>
<clipPath id="clip0_47_70">
<rect width="28" height="28" fill="white" transform="translate(39 22)"/>
</clipPath>
</defs>
</svg>
