<svg width="73.3" height="16" viewBox="0 0 220 48" fill="none"
    xmlns="http://www.w3.org/2000/svg">
    <path fill-rule="evenodd" clip-rule="evenodd" d="M41.5092 46.4282C41.1958 45.812 41.1958 45.0053 41.1958 43.3918V4.60814C41.1958 2.99514 41.1958 2.18864 41.5091 1.57255C41.7846 1.03063 42.2244 0.590034 42.7652 0.313911C43.38 0 44.1849 0 45.7946 0H60.8367C64.8462 0 66.851 0 68.4958 0.441614C72.9593 1.64002 76.4457 5.13347 77.6417 9.60599C78.0824 11.2541 78.0824 13.2628 78.0824 17.2803V17.2805C78.0824 19.8962 76.9003 20.8536 75.8922 21.6701C75.1428 22.277 74.4895 22.8061 74.4895 23.8807C74.4895 24.9395 75.2506 25.4687 76.1332 26.0825C77.3513 26.9295 78.801 27.9375 78.801 30.7209C78.801 34.7313 78.801 36.7365 78.3617 38.382C77.1671 42.8576 73.679 46.3539 69.2127 47.5524C67.5707 47.993 65.5696 47.9937 61.5673 47.9949L45.7961 48H45.7961C44.1859 48.0005 43.3808 48.0007 42.7658 47.6869C42.2248 47.4108 41.7849 46.9702 41.5092 46.4282ZM96.3637 38.1611L94.4034 44.3146C94.0364 45.4667 93.8529 46.0427 93.5034 46.4691C93.1949 46.8456 92.7961 47.1375 92.3444 47.3175C91.8327 47.5214 91.2293 47.5214 90.0223 47.5214H81.35L95.2698 3.4575C95.6349 2.30177 95.8174 1.7239 96.1668 1.29609C96.4753 0.918363 96.8745 0.625391 97.327 0.444681C97.8395 0.240007 98.4444 0.240007 99.6542 0.240007H109.206C110.416 0.240007 111.021 0.240007 111.533 0.444633C111.986 0.625301 112.385 0.918207 112.693 1.29585C113.043 1.72358 113.225 2.30133 113.59 3.45684L127.518 47.5214H118.841C117.634 47.5214 117.031 47.5214 116.519 47.3176C116.068 47.1376 115.669 46.8457 115.36 46.4693C115.011 46.043 114.827 45.467 114.46 44.3151L112.499 38.1611H96.3637ZM98.8103 30.4809H110.052L104.43 12.8404L98.8103 30.4809ZM4.59885 47.5214C2.9891 47.5214 2.18423 47.5214 1.56938 47.2075C1.02855 46.9314 0.588845 46.4908 0.313278 45.9489C0 45.3328 0 44.5263 0 42.9133V0.480014H7.3751C8.98485 0.480014 9.78972 0.480014 10.4046 0.793925C10.9454 1.07005 11.3851 1.51065 11.6607 2.05257C11.9739 2.66865 11.9739 3.47515 11.9739 5.08815V34.177C11.9739 34.9835 11.9739 35.3868 12.1306 35.6948C12.2684 35.9658 12.4882 36.1861 12.7586 36.3241C13.0661 36.4811 13.4685 36.4811 14.2734 36.4811H31.4561C33.0659 36.4811 33.8707 36.4811 34.4856 36.795C35.0264 37.0711 35.4661 37.5117 35.7417 38.0536C36.055 38.6697 36.055 39.4762 36.055 41.0892V47.5214H4.59885ZM131.257 5.08815C131.257 3.47515 131.257 2.66865 131.57 2.05257C131.845 1.51065 132.285 1.07005 132.826 0.793925C133.441 0.480014 134.246 0.480014 135.855 0.480014H140.088C141.059 0.480014 141.544 0.480014 141.979 0.621921C142.363 0.747476 142.716 0.952821 143.016 1.22455C143.355 1.53167 143.596 1.95385 144.079 2.7982L158.802 28.5609V5.08815C158.802 3.47515 158.802 2.66865 159.115 2.05257C159.391 1.51065 159.83 1.07005 160.371 0.793925C160.986 0.480014 161.791 0.480014 163.401 0.480014H170.299V42.9061C170.299 44.5176 170.299 45.3233 169.986 45.9391C169.711 46.4807 169.272 46.9212 168.731 47.1976C168.117 47.5117 167.313 47.5125 165.705 47.5142L161.471 47.5186C160.499 47.5197 160.013 47.5202 159.578 47.3784C159.193 47.253 158.839 47.0477 158.539 46.7758C158.2 46.4684 157.958 46.0458 157.475 45.2005L142.754 19.4406V42.9133C142.754 44.5263 142.754 45.3328 142.44 45.9489C142.165 46.4908 141.725 46.9314 141.184 47.2075C140.569 47.5214 139.765 47.5214 138.155 47.5214H131.257V5.08815ZM182.706 0.480014H175.808V42.9013C175.808 44.5143 175.808 45.3208 176.121 45.9369C176.397 46.4788 176.837 46.9194 177.377 47.1955C177.992 47.5094 178.797 47.5094 180.407 47.5094H187.305V28.3208H189.187C189.991 28.3208 190.394 28.3208 190.766 28.4227C191.095 28.5129 191.406 28.6612 191.683 28.8607C191.997 29.0859 192.25 29.3988 192.757 30.0248L205.551 45.8175C206.058 46.4434 206.312 46.7564 206.625 46.9816C206.902 47.1811 207.213 47.3294 207.543 47.4196C207.915 47.5214 208.317 47.5214 209.122 47.5214H220L203.079 26.6697C202.238 25.6329 201.817 25.1144 201.656 24.5381C201.514 24.0298 201.514 23.4921 201.656 22.9839C201.818 22.4078 202.239 21.8897 203.08 20.8538L203.08 20.8535L203.081 20.8533L203.081 20.8532L219.633 0.480026H208.872C208.071 0.480026 207.671 0.480026 207.3 0.581064C206.972 0.670581 206.662 0.817804 206.385 1.01588C206.072 1.23944 205.819 1.55024 205.312 2.17183L192.801 17.5088L192.801 17.5091C192.294 18.1305 192.04 18.4412 191.728 18.6647C191.451 18.8628 191.141 19.01 190.813 19.0995C190.442 19.2006 190.041 19.2006 189.24 19.2006H187.305V5.08815C187.305 3.47515 187.305 2.66865 186.992 2.05257C186.716 1.51065 186.277 1.07005 185.736 0.793925C185.121 0.480014 184.316 0.480014 182.706 0.480014ZM62.6358 15.7396C63.5384 14.3201 64.3197 13.0914 64.3197 11.5203C64.3197 8.33909 61.7408 5.76017 58.5595 5.76017C55.3783 5.76017 52.7993 8.46024 52.7993 11.5203C52.7993 13.0914 53.602 14.3201 54.5293 15.7396C55.7977 17.6812 57.2994 19.98 57.2994 24.0007C57.2994 28.0214 55.7977 30.3202 54.5293 32.2618C53.602 33.6813 52.7993 34.91 52.7993 36.4811C52.7994 39.6623 55.3783 42.2412 58.5595 42.2412C61.7408 42.2412 64.3197 39.6623 64.3197 36.4811C64.3197 34.91 63.5384 33.6813 62.6358 32.2618C61.4012 30.3202 59.9395 28.0214 59.9395 24.0007C59.9395 19.98 61.4012 17.6812 62.6358 15.7396Z" fill="white"></path>
</svg>