<?xml version="1.0" encoding="UTF-8"?><svg id="Layer_2" xmlns="http://www.w3.org/2000/svg" width="2516" height="1232.11" viewBox="0 0 2516 1232.11"><defs><style>.cls-1{fill:#fff;}</style></defs><g id="Layer_1-2"><g id="Logo"><g id="g886"><g id="path839"><path class="cls-1" d="m740.23,0H23.53c-4.42,0-8.66,1.64-11.79,4.57-3.13,2.92-4.88,6.89-4.88,11.03v670.62c0,4.14,1.76,8.11,4.88,11.03,3.13,2.92,7.37,4.56,11.79,4.56h716.7c4.43,0,8.66-1.64,11.79-4.56,3.12-2.93,4.88-6.9,4.88-11.03V15.6c0-4.14-1.76-8.1-4.88-11.03-3.13-2.92-7.37-4.57-11.79-4.57Zm-233.34,452.28c0,4.14-1.76,8.1-4.88,11.03-3.13,2.92-7.37,4.57-11.79,4.57h-216.68c-4.42,0-8.66-1.64-11.79-4.57-3.13-2.93-4.88-6.89-4.88-11.03v-202.75c0-4.14,1.76-8.1,4.88-11.03,3.13-2.93,7.37-4.57,11.79-4.57h216.68c4.42,0,8.66,1.64,11.79,4.57,3.13,2.92,4.88,6.89,4.88,11.03v202.75Z"/></g><g id="path841"><path class="cls-1" d="m2240.61,233.97h-216.68c-9.2,0-16.67,6.98-16.67,15.6v202.75c0,8.61,7.47,15.6,16.67,15.6h216.68c9.21,0,16.67-6.98,16.67-15.6v-202.75c0-8.61-7.46-15.6-16.67-15.6h0Z"/></g><g id="path843"><path class="cls-1" d="m1990.65.01h-216.67c-9.21,0-16.67,6.98-16.67,15.6v202.75c0,8.61,7.46,15.6,16.67,15.6h216.67c9.21,0,16.67-6.98,16.67-15.6V15.61c0-8.61-7.47-15.6-16.67-15.6Z"/></g><g id="path845"><path class="cls-1" d="m2490.76.01h-216.68c-9.2,0-16.67,6.98-16.67,15.6v202.75c0,8.61,7.47,15.6,16.67,15.6h216.68c9.21,0,16.67-6.98,16.67-15.6V15.61c0-8.61-7.46-15.6-16.67-15.6Z"/></g><g id="path847"><path class="cls-1" d="m1990.65,467.9h-216.67c-9.21,0-16.67,6.98-16.67,15.6v202.75c0,8.61,7.46,15.6,16.67,15.6h216.67c9.21,0,16.67-6.98,16.67-15.6v-202.75c0-8.61-7.47-15.6-16.67-15.6Z"/></g><g id="path849"><path class="cls-1" d="m2490.76,467.9h-216.68c-9.2,0-16.67,6.98-16.67,15.6v202.75c0,8.61,7.47,15.6,16.67,15.6h216.68c9.21,0,16.67-6.98,16.67-15.6v-202.75c0-8.61-7.46-15.6-16.67-15.6Z"/></g><g id="path851"><path class="cls-1" d="m1615.34.01h-216.67c-9.21,0-16.67,6.98-16.67,15.6v202.75c0,8.61,7.47,15.6,16.67,15.6h216.67c9.21,0,16.67-6.98,16.67-15.6V15.61c0-8.61-7.46-15.6-16.67-15.6Z"/></g><g id="path853"><path class="cls-1" d="m1615.34,467.9h-216.67c-9.21,0-16.67,6.98-16.67,15.6v202.75c0,8.61,7.47,15.6,16.67,15.6h216.67c9.21,0,16.67-6.98,16.67-15.6v-202.75c0-8.61-7.46-15.6-16.67-15.6Z"/></g><g id="path855"><path class="cls-1" d="m1381.92,249.36c0-4.14-1.76-8.1-4.88-11.03-3.12-2.93-7.37-4.57-11.78-4.57h-233.35V15.6c0-4.14-1.76-8.1-4.88-11.03-3.12-2.92-7.37-4.57-11.78-4.57h-216.67c-4.43,0-8.66,1.64-11.79,4.57-3.12,2.92-4.88,6.89-4.88,11.03v670.27c0,4.14,1.76,8.1,4.88,11.03,3.13,2.93,7.37,4.57,11.79,4.57h216.67c4.42,0,8.66-1.64,11.78-4.57,3.12-2.93,4.88-6.89,4.88-11.03v-218.17h233.35c4.42,0,8.66-1.64,11.78-4.57,3.12-2.93,4.88-6.89,4.88-11.03v-202.75Z"/></g></g><g><path class="cls-1" d="m1675.17,884.96c33.83,0,64.5,6.8,92,20.39,27.51,13.6,49.24,33.43,65.21,59.52,15.96,26.08,23.95,57.15,23.95,93.19s-7.99,67.19-23.95,93.43c-15.97,26.25-37.63,46.24-64.97,59.99-27.35,13.75-58.09,20.63-92.24,20.63h-125.2v-347.15h125.2Zm-9.01,278.86c34.46,0,60.54-9.17,78.25-27.51,17.7-18.33,26.56-44.42,26.56-78.25s-8.94-59.36-26.8-77.54c-17.87-18.18-43.87-27.27-78.01-27.27h-35.09v210.56h35.09Z"/><path class="cls-1" d="m2125.7,1092.21h-135.63v69.71h156.98v70.19h-238.07v-347.15h232.38v69.71h-151.28v68.29h135.63v69.24Z"/><path class="cls-1" d="m2509.83,884.96l-121.41,168.36,127.57,178.79h-100.07l-77.3-112.87-78.72,112.87h-92.95l127.57-176.89-121.41-170.25h99.12l71.61,104.33,72.56-104.33h93.43Z"/></g><rect class="cls-1" y="1033.87" width="1381.58" height="48.99"/></g></g></svg>