<svg width="297" height="69" viewBox="0 0 297 69" fill="none" xmlns="http://www.w3.org/2000/svg">
<g clip-path="url(#clip0_717_21)">
<path d="M89.4883 48.913V20.0818H102.134C108.176 20.0818 111.543 24.2319 111.543 29.116C111.543 34 108.136 38.1501 102.134 38.1501H94.5371V48.913H89.4883ZM101.442 24.5337H94.5371V33.6982H101.442C104.292 33.6982 106.36 31.8842 106.36 29.116C106.36 26.3479 104.288 24.5337 101.442 24.5337Z" fill="white"/>
<path d="M129.152 19.6045C137.784 19.6045 143.87 25.9155 143.87 34.5175C143.87 43.1195 137.784 49.4346 129.152 49.4346C120.52 49.4346 114.434 43.1236 114.434 34.5216C114.434 25.9194 120.52 19.6045 129.152 19.6045ZM129.152 24.1013C123.326 24.1013 119.612 28.5531 119.612 34.5216C119.612 40.4451 123.326 44.9418 129.152 44.9418C134.937 44.9418 138.691 40.4451 138.691 34.5216C138.691 28.5531 134.934 24.1013 129.152 24.1013Z" fill="white"/>
<path d="M148.742 48.913V20.0818H153.791V44.4611H166.477V48.913H148.742Z" fill="white"/>
<path d="M183.179 19.6045C191.811 19.6045 197.898 25.9155 197.898 34.5175C197.898 43.1195 191.811 49.4346 183.179 49.4346C174.548 49.4346 168.461 43.1236 168.461 34.5216C168.461 25.9194 174.552 19.6045 183.179 19.6045ZM183.179 24.1013C177.353 24.1013 173.64 28.5531 173.64 34.5216C173.64 40.4451 177.353 44.9418 183.179 44.9418C188.961 44.9418 192.719 40.4451 192.719 34.5216C192.719 28.5531 188.961 24.1013 183.179 24.1013Z" fill="white"/>
<path d="M222.845 48.913L207.83 27.9094V48.913H202.781V20.0818H207.96L222.678 40.5311V20.0818H227.727V48.9171H222.845V48.913Z" fill="white"/>
<path d="M233.848 48.913V20.0818H238.897V48.9171H233.848V48.913Z" fill="white"/>
<path d="M245.023 48.913V20.0818H264.745V24.5337H250.072V32.0105H264.448V36.4624H250.072V44.4611H264.745V48.913H245.023Z" fill="white"/>
<path d="M289.173 48.913L281.103 37.6285L273.033 48.913H266.992L277.781 34.1304L267.639 20.0818H273.68L281.103 30.6733L288.484 20.0818H294.572L284.474 34.0897L295.219 48.9171L289.173 48.913Z" fill="white"/>
<path d="M59.6596 17.249V34.4979L44.7458 25.8713L29.832 17.249L44.7458 8.62245L59.6596 0V17.249Z" fill="#20392B"/>
<path d="M29.8275 34.5017V51.7508L14.9138 43.1242L0 34.5017L14.9138 25.8754L29.8275 17.2488V34.5017Z" fill="#005C30"/>
<path d="M0 17.2485V-0.000488281L14.9138 8.62604L29.8275 17.2526L14.9138 25.8751L0 34.5015V17.2485Z" fill="#3AB06A"/>
<path d="M0 51.7508V34.5017L14.9138 43.1283L29.8275 51.7549L14.9138 60.3813L0 68.9996V51.7508Z" fill="#20392B"/>
<path d="M44.7458 25.8754L29.832 17.2488V34.4978V51.7467L44.7458 60.3733L59.6596 68.9999V51.7508V34.5017L44.7458 25.8754Z" fill="#3AB06A"/>
</g>
<defs>
<clipPath id="clip0_717_21">
<rect width="297" height="69" fill="white"/>
</clipPath>
</defs>
</svg>
