<svg width="104" height="74" viewBox="0 0 104 74" fill="none" xmlns="http://www.w3.org/2000/svg">
  <g clip-path="url(#clip0_1_2)">
    <path
      d="M75.693 2.69831C58.7471 0.399607 43.4307 10.1764 41.4829 24.5353C39.5351 38.8943 51.6935 52.398 68.6394 54.6967C85.5853 56.9954 100.902 47.2186 102.849 32.8597C104.797 18.5007 92.6389 4.99702 75.693 2.69831Z"
      fill="white" />
    <path
      d="M63.4423 20.7403C46.4964 18.4416 31.18 28.2184 29.2322 42.5773C27.2844 56.9363 39.4428 70.44 56.3887 72.7387C73.3346 75.0374 88.651 65.2606 90.5988 50.9017C92.5466 36.5427 80.3882 23.039 63.4423 20.7403Z"
      fill="white" />
    <path
      d="M37.8996 1.26611C19.6246 -1.21289 2.93702 10.5833 0.626855 27.6137C-1.68331 44.644 11.2588 60.4595 29.5338 62.9385C47.8088 65.4175 64.4964 53.6213 66.8065 36.5909C69.1167 19.5606 56.1746 3.74511 37.8996 1.26611Z"
      fill="white" />
    <path
      d="M63.2626 24.1931C63.2626 24.1931 65.7921 23.2462 65.5813 25.5458C65.511 26.4927 64.8786 29.8067 64.3868 33.3914L62.7005 44.0099C62.7005 44.0099 62.56 45.5655 61.2952 45.8361C60.0304 46.1066 58.1333 44.8892 57.782 44.6186C57.5009 44.4157 52.5122 41.3722 50.7556 39.8842C50.2637 39.4784 49.7016 38.6668 50.8258 37.7199L58.2036 30.9566C59.0467 30.1449 59.8899 28.2512 56.3767 30.5507L46.5398 36.976C46.5398 36.976 45.4156 37.6523 43.3077 37.0436L38.7405 35.6909C38.7405 35.6909 37.0542 34.6764 39.935 33.6619C46.9614 30.4831 55.6038 27.2366 63.2626 24.1931Z"
      fill="#2596FF" />
  </g>
  <defs>
    <clipPath id="clip0_1_2">
      <rect width="104" height="74" fill="white" />
    </clipPath>
  </defs>
</svg>