<svg width="104" height="74" viewBox="0 0 104 74" fill="none" xmlns="http://www.w3.org/2000/svg">
  <g clip-path="url(#clip0_1_2)">
    <path
      d="M75.693 2.69831C58.7471 0.3996 43.4307 10.1764 41.4829 24.5353C39.5351 38.8943 51.6935 52.398 68.6394 54.6967C85.5853 56.9954 100.902 47.2186 102.849 32.8597C104.797 18.5007 92.6389 4.99701 75.693 2.69831Z"
      fill="white" />
    <path
      d="M63.4423 20.7403C46.4964 18.4416 31.18 28.2184 29.2322 42.5773C27.2844 56.9363 39.4428 70.44 56.3887 72.7387C73.3346 75.0374 88.651 65.2606 90.5988 50.9017C92.5466 36.5427 80.3882 23.039 63.4423 20.7403Z"
      fill="white" />
    <path
      d="M37.8996 1.26612C19.6246 -1.21288 2.93702 10.5833 0.626855 27.6137C-1.68331 44.644 11.2588 60.4595 29.5338 62.9385C47.8088 65.4175 64.4964 53.6213 66.8065 36.5909C69.1167 19.5606 56.1746 3.74512 37.8996 1.26612Z"
      fill="white" />
    <mask id="mask0_1_2" style="mask-type:luminance" maskUnits="userSpaceOnUse" x="40" y="20" width="26" height="32">
      <path d="M66 20H40V51.0641H66V20Z" fill="white" />
    </mask>
    <g mask="url(#mask0_1_2)">
      <path
        d="M60.4627 23H64.4494L55.6961 33.7608L65.9227 48.3582H57.8974L51.6141 39.4875L44.4207 48.3582H40.4341L49.7074 36.8487L39.9141 23H48.1387L53.8154 31.1034L60.4627 23ZM59.0674 45.8317H61.2774L46.9774 25.4329H44.6027L59.0674 45.8317Z"
        fill="#2596FF" />
    </g>
  </g>
  <defs>
    <clipPath id="clip0_1_2">
      <rect width="104" height="74" fill="white" />
    </clipPath>
  </defs>
</svg>